<?xml version="1.0" encoding="utf-8"?>
<!-- Generator: Adobe Illustrator 26.0.2, SVG Export Plug-In . SVG Version: 6.00 Build 0)  -->
<svg version="1.1" id="Layer_1" xmlns="http://www.w3.org/2000/svg" xmlns:xlink="http://www.w3.org/1999/xlink" x="0px" y="0px"
	 viewBox="0 0 32 31" style="enable-background:new 0 0 32 31;" xml:space="preserve">
<style type="text/css">
	.st0{fill-rule:evenodd;clip-rule:evenodd;fill:#FF6A13;}
</style>
<path class="st0" d="M17.1,2.6h-1.5V3H11v1.5h4.6v0.7c-0.7,0.2-1.2,0.6-1.5,1.3c-0.3,0.8-0.5,1.9-0.7,3.1l-8.2,1
	c-1.2,0-2.2,0.6-2.2,1.2l0,3.1c0,0.7,1,1.2,2.2,1.2l8-0.7l0.9,6.7l-2.6,0.4c-0.5,0-1,0.3-1,0.7l0,1.9c0,0.4,0.4,0.7,1,0.7l3-0.3
	l0.1,0.5c0.1,0.9,0.9,1.6,1.8,1.6h0h0c0.9,0,1.6-0.7,1.7-1.6l0.1-0.5l3.2,0.2c0.5,0,1-0.3,1-0.7l0-1.9c0-0.4-0.4-0.7-1-0.7L18.8,22
	l0.7-6.7l8.2,0.4c1.2,0,2.2-0.6,2.2-1.2l0-3.1c0-0.7-1-1.2-2.2-1.2l-8.5-0.7c-0.2-1.2-0.5-2.2-0.8-3.1c-0.2-0.6-0.7-1-1.4-1.2V4.5
	h4.6V3h-4.6V2.6z"/>
</svg>
