<?xml version="1.0" encoding="utf-8"?>
<!-- Generator: Adobe Illustrator 26.0.2, SVG Export Plug-In . SVG Version: 6.00 Build 0)  -->
<svg version="1.1" id="Layer_1" xmlns="http://www.w3.org/2000/svg" xmlns:xlink="http://www.w3.org/1999/xlink" x="0px" y="0px"
	 viewBox="0 0 32 28" style="enable-background:new 0 0 32 28;" xml:space="preserve">
<style type="text/css">
	.st0{fill:#FF6A13;}
</style>
<path class="st0" d="M20.5,6.1c1.4,0,2.6-1.2,2.6-2.6c0-1.4-1.2-2.6-2.6-2.6c-1.4,0-2.6,1.2-2.6,2.6C17.9,4.9,19.1,6.1,20.5,6.1z
	 M7,14.5c-3.6,0-6.5,2.8-6.5,6.5c0,3.6,2.8,6.5,6.5,6.5c3.6,0,6.5-2.8,6.5-6.5C13.4,17.3,10.6,14.5,7,14.5z M7,25.5
	c-2.5,0-4.5-2.1-4.5-4.5c0-2.5,2.1-4.5,4.5-4.5c2.5,0,4.5,2.1,4.5,4.5C11.5,23.4,9.4,25.5,7,25.5z M14.4,12.6l3.1-3.1l1,1
	c1.7,1.7,3.9,2.7,6.6,2.7v-2.6c-1.9,0-3.5-0.8-4.6-1.9l-2.5-2.5c-0.6-0.5-1.3-0.8-2.1-0.8s-1.4,0.3-1.8,0.8l-3.6,3.6
	c-0.5,0.5-0.8,1.2-0.8,1.8c0,0.8,0.3,1.4,0.8,1.8l4.1,3.6v6.5h2.6v-8L14.4,12.6z M25,14.5c-3.6,0-6.5,2.8-6.5,6.5
	c0,3.6,2.8,6.5,6.5,6.5c3.6,0,6.5-2.8,6.5-6.5C31.5,17.3,28.7,14.5,25,14.5z M25,25.5c-2.5,0-4.5-2.1-4.5-4.5c0-2.5,2.1-4.5,4.5-4.5
	c2.5,0,4.5,2.1,4.5,4.5C29.6,23.4,27.5,25.5,25,25.5z"/>
</svg>
