<?xml version="1.0" encoding="utf-8"?>
<!-- Generator: Adobe Illustrator 26.0.2, SVG Export Plug-In . SVG Version: 6.00 Build 0)  -->
<svg version="1.1" id="Layer_1" xmlns="http://www.w3.org/2000/svg" xmlns:xlink="http://www.w3.org/1999/xlink" x="0px" y="0px"
	 viewBox="0 0 22 26" style="enable-background:new 0 0 22 26;" xml:space="preserve">
<style type="text/css">
	.st0{fill:#FF6A13;}
</style>
<path class="st0" d="M0.7,18.7c0,1.1,0.5,2.2,1.3,2.9v2.3c0,0.7,0.6,1.3,1.3,1.3h1.3c0.7,0,1.3-0.6,1.3-1.3v-1.3h10.3v1.3
	c0,0.7,0.6,1.3,1.3,1.3h1.3c0.7,0,1.3-0.6,1.3-1.3v-2.3c0.8-0.7,1.3-1.7,1.3-2.9V5.7c0-4.5-4.6-5.2-10.3-5.2
	C5.3,0.6,0.7,1.2,0.7,5.7V18.7z M5.2,20c-1.1,0-1.9-0.9-1.9-1.9s0.9-1.9,1.9-1.9c1.1,0,1.9,0.9,1.9,1.9S6.3,20,5.2,20z M16.8,20
	c-1.1,0-1.9-0.9-1.9-1.9s0.9-1.9,1.9-1.9c1.1,0,1.9,0.9,1.9,1.9S17.9,20,16.8,20z M18.7,12.2H3.2V5.7h15.5V12.2z"/>
</svg>
