<svg width="278" height="4" viewBox="0 0 278 4" fill="none" xmlns="http://www.w3.org/2000/svg">
<rect x="0.1" y="0.1" width="277.8" height="3.8" fill="white" stroke="#FF6A13" stroke-width="0.2"/>
<path fill-rule="evenodd" clip-rule="evenodd" d="M133.322 0H113.56L107.753 4H127.51L133.322 0ZM147.495 4L153.302 0H173.065L167.253 4H147.495ZM193.044 0L187.238 4H206.995L212.807 0H193.044ZM252.55 0H232.787L226.98 4H246.737L252.55 0ZM266.723 4L272.529 0H278V4H266.723ZM53.8376 0H34.0747L28.2682 4H48.0253L53.8376 0ZM68.0106 4L73.8171 0H93.58L87.7677 4H68.0106ZM14.0952 0H0V4H8.28291L14.0952 0Z" fill="#FF6A13"/>
</svg>
