<?xml version="1.0" encoding="utf-8"?>
<!-- Generator: Adobe Illustrator 26.0.2, SVG Export Plug-In . SVG Version: 6.00 Build 0)  -->
<svg version="1.1" id="Layer_1" xmlns="http://www.w3.org/2000/svg" xmlns:xlink="http://www.w3.org/1999/xlink" x="0px" y="0px"
	 viewBox="0 0 24 22" style="enable-background:new 0 0 24 22;" xml:space="preserve">
<style type="text/css">
	.st0{fill:#FF6A13;}
</style>
<path class="st0" d="M20.9,1.8c-0.3-0.8-1-1.3-1.8-1.3H4.9C4,0.5,3.3,1,3.1,1.8L0.4,9.5v10.3c0,0.7,0.6,1.3,1.3,1.3H3
	c0.7,0,1.3-0.6,1.3-1.3v-1.3h15.5v1.3c0,0.7,0.6,1.3,1.3,1.3h1.3c0.7,0,1.3-0.6,1.3-1.3V9.5L20.9,1.8z M4.9,14.7
	c-1.1,0-1.9-0.9-1.9-1.9c0-1.1,0.9-1.9,1.9-1.9c1.1,0,1.9,0.9,1.9,1.9C6.8,13.8,6,14.7,4.9,14.7z M19.1,14.7c-1.1,0-1.9-0.9-1.9-1.9
	c0-1.1,0.9-1.9,1.9-1.9c1.1,0,1.9,0.9,1.9,1.9C21,13.8,20.2,14.7,19.1,14.7z M3,8.2l1.9-5.8h14.2L21,8.2H3z"/>
</svg>
