<?xml version="1.0" encoding="utf-8"?>
<!-- Generator: Adobe Illustrator 26.0.2, SVG Export Plug-In . SVG Version: 6.00 Build 0)  -->
<svg version="1.1" id="Layer_1" xmlns="http://www.w3.org/2000/svg" xmlns:xlink="http://www.w3.org/1999/xlink" x="0px" y="0px"
	 viewBox="0 0 32 31" style="enable-background:new 0 0 32 31;" xml:space="preserve">
<style type="text/css">
	.st0{fill-rule:evenodd;clip-rule:evenodd;fill:#FF6A13;}
</style>
<path class="st0" d="M5.6,24L5.6,24c2.1,0,3.9-1.1,5.1-2.5c1.2,1.4,3,2.5,5.1,2.5s3.8-1.1,5.1-2.5c1.2,1.4,3,2.5,5.1,2.5H26l2.4-8.4
	c0.1-0.3,0.1-0.7-0.1-1c-0.2-0.3-0.4-0.5-0.8-0.6h-1.6V7.6c0-1.4-1.1-2.5-2.5-2.5h-2.2V1.3H10.4v3.8H8.2c-1.4,0-2.5,1.1-2.5,2.5V14
	H4c-0.3,0.1-0.6,0.3-0.8,0.6c-0.2,0.3-0.2,0.7-0.1,1L5.6,24z M25.9,26.6c-1.8,0-3.5-0.6-5.1-1.7c-3.1,2.2-7.1,2.2-10.2,0
	c-1.5,1.1-3.3,1.7-5.1,1.7H3.1v2.5h2.5c1.8,0,3.5-0.4,5.1-1.3c3.2,1.6,7,1.6,10.2,0c1.6,0.8,3.3,1.3,5.1,1.3h2.5v-2.5H25.9z
	 M9.3,16.4c-0.3,0-0.6,0.3-0.6,0.6v2.7c0,0.3,0.3,0.6,0.6,0.6h12.3c0.3,0,0.6-0.3,0.6-0.6V17c0-0.3-0.3-0.6-0.6-0.6H9.3z M7.8,9.1
	c0-0.3,0.3-0.6,0.6-0.6h1.9c0.3,0,0.6,0.3,0.6,0.6V11c0,0.3-0.3,0.6-0.6,0.6H8.5c-0.3,0-0.6-0.3-0.6-0.6V9.1z M12.4,8.4
	c-0.3,0-0.6,0.3-0.6,0.6V11c0,0.3,0.3,0.6,0.6,0.6h1.9c0.3,0,0.6-0.3,0.6-0.6V9.1c0-0.3-0.3-0.6-0.6-0.6H12.4z M16.6,9.1
	c0-0.3,0.3-0.6,0.6-0.6h1.9c0.3,0,0.6,0.3,0.6,0.6V11c0,0.3-0.3,0.6-0.6,0.6h-1.9c-0.3,0-0.6-0.3-0.6-0.6V9.1z M21.2,8.4
	c-0.3,0-0.6,0.3-0.6,0.6V11c0,0.3,0.3,0.6,0.6,0.6h1.9c0.3,0,0.6-0.3,0.6-0.6V9.1c0-0.3-0.3-0.6-0.6-0.6H21.2z"/>
</svg>
